<svg width="1200" height="900" viewBox="0 0 1200 900" fill="none" xmlns="http://www.w3.org/2000/svg">
  <defs>
    <linearGradient id="bg" x1="110" y1="60" x2="1090" y2="840" gradientUnits="userSpaceOnUse">
      <stop stop-color="#0F766E" />
      <stop offset="0.5" stop-color="#14532D" />
      <stop offset="1" stop-color="#1F2937" />
    </linearGradient>
    <radialGradient id="glow" cx="0" cy="0" r="1" gradientUnits="userSpaceOnUse" gradientTransform="translate(820 220) rotate(115) scale(340 290)">
      <stop stop-color="#F59E0B" stop-opacity="0.7" />
      <stop offset="1" stop-color="#F59E0B" stop-opacity="0" />
    </radialGradient>
  </defs>
  <rect width="1200" height="900" fill="url(#bg)" />
  <rect width="1200" height="900" fill="url(#glow)" />
  <path d="M0 630C180 600 250 520 374 512C501 504 587 588 690 575C808 560 900 430 1060 438C1125 441 1168 451 1200 459V900H0V630Z" fill="#0B1120" fill-opacity="0.55" />
  <path d="M0 700C130 660 230 650 327 670C458 699 560 780 709 772C842 765 934 698 1034 672C1108 652 1165 654 1200 662V900H0V700Z" fill="#111827" fill-opacity="0.82" />
  <circle cx="860" cy="210" r="84" fill="#FDE68A" fill-opacity="0.96" />
  <circle cx="860" cy="210" r="128" fill="#FDE68A" fill-opacity="0.18" />
  <rect x="78" y="74" width="248" height="44" rx="22" fill="#FFFFFF" fill-opacity="0.13" />
  <rect x="78" y="74" width="176" height="44" rx="22" fill="#FFFFFF" fill-opacity="0.22" />
  <path d="M250 572C284 530 308 486 338 446C364 410 391 376 417 356C438 340 458 334 475 338C494 342 505 356 515 379C530 414 541 456 553 498C565 541 580 581 609 614H196C208 598 230 589 250 572Z" fill="#1B4332" />
  <path d="M455 578C484 545 506 510 529 472C552 433 580 398 611 381C630 371 648 367 663 372C684 379 695 398 706 425C722 465 734 513 746 560C751 579 758 596 769 614H413C429 602 443 589 455 578Z" fill="#14532D" />
  <path d="M691 599C720 558 748 517 775 475C801 435 829 401 858 379C887 358 916 354 942 364C967 374 984 394 997 422C1016 461 1027 509 1038 555C1044 579 1052 596 1062 614H636C655 608 673 605 691 599Z" fill="#0F766E" />
  <path d="M313 386C326 351 342 330 360 323C379 316 398 324 412 341C427 360 438 387 447 414L313 386Z" fill="#F8FAFC" fill-opacity="0.15" />
  <path d="M604 370C621 334 640 311 662 304C683 297 703 306 718 324C734 344 744 373 753 403L604 370Z" fill="#F8FAFC" fill-opacity="0.15" />
</svg>
